<?xml version="1.0" encoding="UTF-8"?>
<!-- Do not edit this file with editors other than draw.io -->
<!DOCTYPE svg PUBLIC "-//W3C//DTD SVG 1.1//EN" "http://www.w3.org/Graphics/SVG/1.1/DTD/svg11.dtd">
<svg xmlns="http://www.w3.org/2000/svg" xmlns:xlink="http://www.w3.org/1999/xlink" version="1.1" width="69px" height="359px" viewBox="-0.5 -0.5 69 359" content="&lt;mxfile host=&quot;app.diagrams.net&quot; agent=&quot;Mozilla/5.0 (Macintosh; Intel Mac OS X 10.15; rv:131.0) Gecko/20100101 Firefox/131.0&quot; version=&quot;24.8.3&quot;&gt;&#xA;  &lt;diagram name=&quot;Page-1&quot; id=&quot;3Zth_l-HQVVLELdFn67p&quot;&gt;&#xA;    &lt;mxGraphModel dx=&quot;1314&quot; dy=&quot;788&quot; grid=&quot;1&quot; gridSize=&quot;10&quot; guides=&quot;1&quot; tooltips=&quot;1&quot; connect=&quot;1&quot; arrows=&quot;1&quot; fold=&quot;1&quot; page=&quot;1&quot; pageScale=&quot;1&quot; pageWidth=&quot;827&quot; pageHeight=&quot;1169&quot; math=&quot;0&quot; shadow=&quot;0&quot;&gt;&#xA;      &lt;root&gt;&#xA;        &lt;mxCell id=&quot;0&quot; /&gt;&#xA;        &lt;mxCell id=&quot;1&quot; parent=&quot;0&quot; /&gt;&#xA;        &lt;mxCell id=&quot;4LjMSdUEFxdUHJZo8yny-1&quot; value=&quot;&quot; style=&quot;image;aspect=fixed;html=1;points=[];align=center;fontSize=12;image=img/lib/azure2/networking/Virtual_Router.svg;&quot; vertex=&quot;1&quot; parent=&quot;1&quot;&gt;&#xA;          &lt;mxGeometry x=&quot;380&quot; y=&quot;380&quot; width=&quot;68&quot; height=&quot;68&quot; as=&quot;geometry&quot; /&gt;&#xA;        &lt;/mxCell&gt;&#xA;        &lt;mxCell id=&quot;4LjMSdUEFxdUHJZo8yny-2&quot; value=&quot;&quot; style=&quot;sketch=0;points=[[0.5,0,0],[1,0.5,0],[0.5,1,0],[0,0.5,0],[0.145,0.145,0],[0.8555,0.145,0],[0.855,0.8555,0],[0.145,0.855,0]];verticalLabelPosition=bottom;html=1;verticalAlign=top;aspect=fixed;align=center;pointerEvents=1;shape=mxgraph.cisco19.rect;prIcon=router;fillColor=#FAFAFA;strokeColor=#005073;&quot; vertex=&quot;1&quot; parent=&quot;1&quot;&gt;&#xA;          &lt;mxGeometry x=&quot;380&quot; y=&quot;90&quot; width=&quot;50&quot; height=&quot;50&quot; as=&quot;geometry&quot; /&gt;&#xA;        &lt;/mxCell&gt;&#xA;      &lt;/root&gt;&#xA;    &lt;/mxGraphModel&gt;&#xA;  &lt;/diagram&gt;&#xA;&lt;/mxfile&gt;&#xA;" resource="https://app.diagrams.net/?p=svgdata#Hloubladi%2Ftest%2Fmaster%2FUntitled%20Diagram.drawio.svg#%7B%22pageId%22%3A%223Zth_l-HQVVLELdFn67p%22%7D"><defs/><g><g data-cell-id="0"><g data-cell-id="1"><g data-cell-id="4LjMSdUEFxdUHJZo8yny-1"><g id="cell-4LjMSdUEFxdUHJZo8yny-1"><g><image x="-0.5" y="289.5" width="68" height="68" xlink:href="https://app.diagrams.net/img/lib/azure2/networking/Virtual_Router.svg"/></g></g></g><g data-cell-id="4LjMSdUEFxdUHJZo8yny-2"><g id="cell-4LjMSdUEFxdUHJZo8yny-2"><g><ellipse cx="25" cy="25" rx="25" ry="25" fill="#fafafa" stroke="none" pointer-events="all"/><rect x="0" y="0" width="50" height="50" fill="none" stroke="none" pointer-events="all"/><path d="M 38.08 40.38 L 31.77 34.19 L 29.2 36.81 L 27.24 27.37 L 36.75 29.12 L 34.2 31.72 L 40.51 37.9 Z M 23.92 28.37 L 17.74 34.68 L 20.36 37.25 L 10.92 39.21 L 12.67 29.71 L 15.26 32.25 L 21.45 25.95 Z M 12.02 9.57 L 18.33 15.76 L 20.89 13.14 L 22.86 22.58 L 13.35 20.83 L 15.9 18.24 L 9.59 12.05 Z M 25.91 21.51 L 32.1 15.2 L 29.48 12.63 L 38.92 10.67 L 37.17 20.17 L 34.58 17.62 L 28.39 23.94 Z M 25 0 C 11.2 0 0 11.2 0 25 C 0 38.8 11.2 50 25 50 C 38.8 50 50 38.8 50 25 C 50 11.2 38.8 0 25 0 Z M 25 0.63 C 38.46 0.63 49.37 11.54 49.37 25 C 49.37 38.46 38.46 49.37 25 49.37 C 11.54 49.37 0.63 38.46 0.63 25 C 0.63 11.54 11.54 0.63 25 0.63 Z" fill="#005073" stroke="none" pointer-events="all"/></g></g></g></g></g></g></svg>